<?xml version="1.0" encoding="UTF-8"?>
<svg width="180px" height="180px" viewBox="0 0 180 180" version="1.1" xmlns="http://www.w3.org/2000/svg" xmlns:xlink="http://www.w3.org/1999/xlink">
    <defs></defs>
    <g id="Page-1" stroke="none" stroke-width="1" fill="none" fill-rule="evenodd">
        <g id="Intro-1" transform="translate(-98.000000, -244.000000)">
            <g id="Logo" transform="translate(98.000000, 244.000000)">
                <g>
                    <path d="M128.337135,180 C118.232944,153.903771 113.675493,129.490388 127.164156,103.524307 C136.511973,85.5293498 152.885061,72.8771279 157.744461,52.7144463 C161.060499,38.9574779 159.993772,25.517708 158.033804,11.0204082 C182.093689,75.2300864 107.225306,115.995532 128.337135,180" id="blauw" fill="#64B5F6"></path>
                    <path d="M0,130.895848 C27.4436364,115.8762 28.0539394,113.246735 33.2066667,107.22523 C50.0533333,87.5383574 49.5430303,61.5939014 61.0769697,39.9773454 C70.5684848,22.188759 85.5551515,11.209611 106.987879,6.1529478 C119.913939,3.10325158 155.286061,0.712883852 179.943636,0.434540957 C129.355758,8.71056278 88.9121212,5.04561403 67.6163636,44.6940801 C49.490303,78.4430052 67.8466667,107.345383 0,130.895848" id="rood" fill="#E57373"></path>
                    <path d="M117.55102,166.530612 C89.8941795,127.837938 22.1479433,135.24217 7.34693878,135.070748 C59.1284463,125.790497 101.29325,124.651292 117.55102,166.530612" id="wit" fill="#E0E0E0"></path>
                </g>
            </g>
        </g>
    </g>
</svg>