<svg xmlns="http://www.w3.org/2000/svg" width="120" height="120" viewBox="0 0 120 120">
  <rect class="dark" x="25.83" y="30.53" width="77.17" height="38.58"/>
  <path class="light" d="M54.45,53.74l.54-2.8H58.4c0-.47-.09-.94-.09-1.5V48H54.07l.58-2.89H59a21,21,0,0,1,2.12-3.91,7.79,7.79,0,0,1,12.44.86,16.28,16.28,0,0,1,1.26,3H71s-.57-.83-1-1.31A3.56,3.56,0,0,0,67,42.39a3.69,3.69,0,0,0-3.28,2c-.19.39-.57,1.69-.57,1.69h5.44L68,49H62.17V51.9H68l-.57,1.93H63.19a11.81,11.81,0,0,0,.58,1.59A4,4,0,0,0,67,57.25,3.52,3.52,0,0,0,70,55.71a7.39,7.39,0,0,0,1-2.84h3.77a10.08,10.08,0,0,1-2.51,6,6.84,6.84,0,0,1-5.21,2.22,7.3,7.3,0,0,1-6.17-3,21.77,21.77,0,0,1-1.74-4.29H54.45Z"/>
  <rect class="light" x="17" y="50.89" width="77.17" height="38.58"/>
  <path class="dark" d="M45.62,74.09l.54-2.8h3.41c0-.46-.09-.93-.09-1.49V68.4H45.23l.58-2.89h4.3a20.91,20.91,0,0,1,2.13-3.92,7.18,7.18,0,0,1,5.69-2.7,7.26,7.26,0,0,1,6.75,3.57,15.89,15.89,0,0,1,1.25,3.05H62.17s-.58-.83-1-1.31a3.55,3.55,0,0,0-3.09-1.45,3.68,3.68,0,0,0-3.28,2c-.19.38-.58,1.69-.58,1.69H59.7l-.58,2.89H53.34v2.9h5.84l-.58,1.93H54.36a10.52,10.52,0,0,0,.58,1.58,4,4,0,0,0,3.18,1.84,3.53,3.53,0,0,0,3.09-1.55,7.68,7.68,0,0,0,1-2.84h3.76a10.08,10.08,0,0,1-2.5,6,6.87,6.87,0,0,1-5.21,2.21,7.29,7.29,0,0,1-6.18-3,21.54,21.54,0,0,1-1.73-4.28H45.62Z"/>
</svg>
